<svg id="Layer_1" data-name="Layer 1" xmlns="http://www.w3.org/2000/svg" viewBox="0 0 100.5 100"><defs><style>.cls-1{fill:#818181;}.cls-2{fill:none;stroke:#fff;stroke-width:2px;}.cls-3{isolation:isolate;}.cls-4{fill:#fff;}</style></defs><rect id="Rectangle_187" data-name="Rectangle 187" class="cls-1" width="100" height="100"/><line id="Line_14" data-name="Line 14" class="cls-2" x1="0.5" y1="50.5" x2="100.5" y2="50.5"/><g id="debonair" class="cls-3"><g class="cls-3"><path class="cls-4" d="M-19.9-1.41V-6.27a2.34,2.34,0,0,1,.73-1.86,2.89,2.89,0,0,1,2-.65h3.89V-12.1h1.65V-1.62A3,3,0,0,1-12.37.32a2.22,2.22,0,0,1-1.78.88h-3.26a2.57,2.57,0,0,1-1-.25A2.37,2.37,0,0,1-19.9-1.41Zm1.67,0c.1.64.4,1,.88,1h3a1,1,0,0,0,.65-.24,1.11,1.11,0,0,0,.44-1v-4.4c0-.71-.3-1.07-.9-1.07h-2.95A1,1,0,0,0-18.25-6v4.5A.31.31,0,0,0-18.23-1.41Z" transform="translate(35.06 34.8)"/><path class="cls-4" d="M-9.34-1.43V-5.89c0-1.93,1-2.89,3.1-2.89h2.47a2.66,2.66,0,0,1,1.92.68,2.46,2.46,0,0,1,.7,1.87V-5L-7.69-2v.44a1.86,1.86,0,0,0,.31.86,1.09,1.09,0,0,0,.84.26H-1V1.2H-6.62A2.7,2.7,0,0,1-8.57.47,2.49,2.49,0,0,1-9.34-1.43Zm1.65-2.41L-2.82-6.1v-.16c0-.58-.34-.87-1-.87H-6.56c-.75,0-1.13.42-1.13,1.27Z" transform="translate(35.06 34.8)"/><path class="cls-4" d="M1-1.62V-12.1H2.61v3.32H6.48a2.36,2.36,0,0,1,2.67,2,3,3,0,0,1,.06.46v4.86A2.37,2.37,0,0,1,7.71,1a2.57,2.57,0,0,1-1,.25H3.45A2.21,2.21,0,0,1,1.66.3,2.86,2.86,0,0,1,1-1.62ZM3.7-.46H6.63a.39.39,0,0,0,.18,0c.39-.08.63-.4.72-.93a.39.39,0,0,1,0-.06V-6A1,1,0,0,0,6.44-7.13H3.51c-.6,0-.9.36-.9,1.07v4.4a1.27,1.27,0,0,0,.31.85A1,1,0,0,0,3.7-.46Z" transform="translate(35.06 34.8)"/><path class="cls-4" d="M11.52-1.26V-6.44a2.18,2.18,0,0,1,2.23-2.32l.23,0h3.26a2.51,2.51,0,0,1,.4,0c1.51.21,2.26,1,2.26,2.3v5.18A2.38,2.38,0,0,1,18.54.89a2.63,2.63,0,0,1-1.3.31H14.13A2.4,2.4,0,0,1,11.64-.61C11.5-1,11.46-1.23,11.52-1.26Zm2.86.8h2.7c.78,0,1.17-.42,1.17-1.27v-4.2a1,1,0,0,0-1.17-1.2h-2.7a1.06,1.06,0,0,0-1.2,1.2v4.14C13.18-.9,13.58-.46,14.38-.46Z" transform="translate(35.06 34.8)"/><path class="cls-4" d="M22.22,1.2V-6.21c0-1.71.94-2.57,2.81-2.57h2.63c1.87,0,2.81.86,2.81,2.57V1.2H28.81V-6.46c-.08-.42-.46-.63-1.13-.63H25a1.36,1.36,0,0,0-.89.23,1.12,1.12,0,0,0-.26.85V1.2Z" transform="translate(35.06 34.8)"/><path class="cls-4" d="M32.79-1.48v-1.2a3.6,3.6,0,0,1,.59-2.17,2.24,2.24,0,0,1,2-.93h4.11v-.67a.64.64,0,0,0-.19-.47.56.56,0,0,0-.43-.21h-6V-8.78h5.9a2.19,2.19,0,0,1,2.38,1.84c0,.21,0,.36,0,.46v5.13a2.37,2.37,0,0,1-.36,1.27A2.4,2.4,0,0,1,38.67,1.2H35.35A2.43,2.43,0,0,1,33.91.68a2.6,2.6,0,0,1-1-1.21A2.6,2.6,0,0,1,32.79-1.48Zm2.09.87a2.14,2.14,0,0,0,.94.15h2.26c.91,0,1.37-.33,1.37-1V-3.06c0-.63-.39-1-1.16-1.06H35.63c-.8.08-1.19.44-1.19,1.06v1.62A.84.84,0,0,0,34.88-.61Z" transform="translate(35.06 34.8)"/><path class="cls-4" d="M43.12-11a1.13,1.13,0,0,1,.32-.81,1.08,1.08,0,0,1,.8-.33,1,1,0,0,1,.81.35,1.16,1.16,0,0,1,.33.82,1.09,1.09,0,0,1-.32.8,1.07,1.07,0,0,1-.8.32,1.11,1.11,0,0,1-.82-.33A1.14,1.14,0,0,1,43.12-11Zm.3,12.16H45.1v-10H43.42Z" transform="translate(35.06 34.8)"/><path class="cls-4" d="M47.42,1.2V-6.14q0-.24,0-.57A2.4,2.4,0,0,1,48-8.14a2.54,2.54,0,0,1,1.44-.6,2.37,2.37,0,0,1,.43,0h.94v1.65H50c-.61,0-.92.34-.92,1V1.2Z" transform="translate(35.06 34.8)"/></g></g><g id="hair_beauty" data-name="hair beauty" class="cls-3"><g class="cls-3"><path class="cls-4" d="M-22.27,38.2V29.1h1.13v2.27h2.85a1.58,1.58,0,0,1,1.43.74,1.64,1.64,0,0,1,.25.87V38.2h-1.13V33.3a.63.63,0,0,0,0-.16.66.66,0,0,0-.52-.64h-2.07c-.53,0-.79.25-.79.76V38.2Z" transform="translate(35.06 34.8)"/><path class="cls-4" d="M-15,36.36v-.82a2.47,2.47,0,0,1,.41-1.48,1.55,1.55,0,0,1,1.34-.64h2.82V33a.48.48,0,0,0-.13-.32.42.42,0,0,0-.3-.14H-15V31.37h4a1.49,1.49,0,0,1,1.62,1.26,2.55,2.55,0,0,1,0,.31v3.51a1.7,1.7,0,0,1-.25.88A1.63,1.63,0,0,1-11,38.2h-2.27a1.68,1.68,0,0,1-1-.35,1.88,1.88,0,0,1-.66-.84A1.84,1.84,0,0,1-15,36.36Zm1.43.6a1.49,1.49,0,0,0,.65.11h1.54c.63,0,.95-.23.95-.68V35.28c0-.43-.27-.67-.8-.72h-1.82c-.55.06-.82.3-.82.72v1.11A.58.58,0,0,0-13.6,37Z" transform="translate(35.06 34.8)"/><path class="cls-4" d="M-8,29.88a.79.79,0,0,1,.23-.56.72.72,0,0,1,.54-.22.72.72,0,0,1,.55.24.76.76,0,0,1,.23.56.74.74,0,0,1-.22.55.73.73,0,0,1-.54.22.74.74,0,0,1-.56-.23A.77.77,0,0,1-8,29.88Zm.21,8.32H-6.6V31.37H-7.75Z" transform="translate(35.06 34.8)"/><path class="cls-4" d="M-5,38.2v-5a3,3,0,0,1,0-.39,1.62,1.62,0,0,1,.38-1,1.72,1.72,0,0,1,1-.41l.3,0h.64V32.5h-.57q-.63,0-.63.69v5Z" transform="translate(35.06 34.8)"/><path class="cls-4" d="M1.68,35.22A1.79,1.79,0,0,1,2,34.37a1.42,1.42,0,0,1,.46-.48l.91-.52-.61-.71-.12-.14a1.64,1.64,0,0,1-.31-.84.81.81,0,0,1,0-.17v-.75a1.64,1.64,0,0,1,.42-1,2.06,2.06,0,0,1,1.71-.69h1a1.87,1.87,0,0,1,1.69.84,1.57,1.57,0,0,1,.29.83v.9a1.48,1.48,0,0,1-.6,1.13.57.57,0,0,1-.26.2l-1.11.66,2,2,0-.48V33.58H8.79v1.83a3,3,0,0,1-.25,1.29L10,38.2H8.14l-.42-.5a2.68,2.68,0,0,1-1.61.5H3.78a2.3,2.3,0,0,1-1.1-.35,1.8,1.8,0,0,1-1-1.63ZM3,36.09a.62.62,0,0,0,.26.52.9.9,0,0,0,.57.2H6c.45,0,.67,0,.67-.12a.05.05,0,0,0,0,0L4.31,34.31l-1,.58a.83.83,0,0,0-.23.29.72.72,0,0,0-.13.35Zm.68-4.54.11.28a9.58,9.58,0,0,0,.77.85l1.41-.89a.47.47,0,0,0,.18-.42v-.31A.79.79,0,0,0,6,30.7a.55.55,0,0,0-.56-.29H4.19a.65.65,0,0,0-.6.67v.25A.46.46,0,0,0,3.63,31.55Z" transform="translate(35.06 34.8)"/><path class="cls-4" d="M14.78,36.27V29.1h1.13v2.27h2.65a1.8,1.8,0,0,1,1.86,1.72v3.33a1.63,1.63,0,0,1-1,1.61,1.74,1.74,0,0,1-.68.17H16.49a1.52,1.52,0,0,1-1.23-.62A2,2,0,0,1,14.78,36.27Zm1.88.8h2a.25.25,0,0,0,.12,0,.68.68,0,0,0,.5-.64.1.1,0,0,1,0,0V33.26a.67.67,0,0,0-.76-.76h-2c-.41,0-.62.25-.62.73v3a.84.84,0,0,0,.21.58A.66.66,0,0,0,16.66,37.07Z" transform="translate(35.06 34.8)"/><path class="cls-4" d="M22,36.4v-3c0-1.32.71-2,2.12-2h1.69a1.85,1.85,0,0,1,1.31.46,1.7,1.7,0,0,1,.48,1.28v.81L23.14,36v.3a1.17,1.17,0,0,0,.21.58.72.72,0,0,0,.57.19h3.77V38.2H23.87a1.86,1.86,0,0,1-1.33-.5A1.7,1.7,0,0,1,22,36.4Zm1.13-1.65,3.33-1.55v-.1q0-.6-.69-.6H23.91c-.51,0-.77.29-.77.87Z" transform="translate(35.06 34.8)"/><path class="cls-4" d="M29.06,36.36v-.82a2.47,2.47,0,0,1,.4-1.48,1.55,1.55,0,0,1,1.34-.64h2.82V33a.44.44,0,0,0-.13-.32.42.42,0,0,0-.3-.14H29.06V31.37h4a1.49,1.49,0,0,1,1.62,1.26,2.55,2.55,0,0,1,0,.31v3.51a1.79,1.79,0,0,1-1.66,1.75H30.81a1.68,1.68,0,0,1-1-.35,1.88,1.88,0,0,1-.66-.84A1.85,1.85,0,0,1,29.06,36.36Zm1.43.6a1.41,1.41,0,0,0,.64.11h1.55c.62,0,.94-.23.94-.68V35.28c0-.43-.27-.67-.8-.72H31q-.81.09-.81.72v1.11A.58.58,0,0,0,30.49,37Z" transform="translate(35.06 34.8)"/><path class="cls-4" d="M36.34,36.44V31.37h1.15v5.24c.06.29.32.43.77.43h1.82a.85.85,0,0,0,.59-.16.76.76,0,0,0,.18-.58V31.37H42v5.07c0,1.17-.64,1.76-1.93,1.76H38.26C37,38.2,36.34,37.61,36.34,36.44Z" transform="translate(35.06 34.8)"/><path class="cls-4" d="M43.56,38.2V29.1h1.13v2.27h1.19V32.5H44.69v5.7Z" transform="translate(35.06 34.8)"/><path class="cls-4" d="M46.55,40.42V39.29h4a.64.64,0,0,0,.56-.73V38.2H48.21A1.57,1.57,0,0,1,47,37.71a1.6,1.6,0,0,1-.48-1.18V31.37h1.13v4.85a.74.74,0,0,0,.82.85h1.78c.52,0,.78-.25.78-.73v-5H52.2V38.5a2,2,0,0,1-.45,1.39,1.74,1.74,0,0,1-1.35.53Z" transform="translate(35.06 34.8)"/></g></g></svg>