<svg id="Layer_1" data-name="Layer 1" xmlns="http://www.w3.org/2000/svg" viewBox="0 0 30 30"><defs><style>.cls-1{isolation:isolate;}.cls-2{fill:#f8691c;}.cls-3,.cls-4{fill:none;}.cls-4{stroke:#fff;}</style></defs><g id="Group_1132" data-name="Group 1132"><g id="_" data-name=" " class="cls-1"><g class="cls-1"><path class="cls-2" d="M20.58,18.69A4.68,4.68,0,0,1,19.31,22,4.59,4.59,0,0,1,16,23.26c-1.3.08-5.2.08-6.5,0A4.68,4.68,0,0,1,6.21,22a4.65,4.65,0,0,1-1.28-3.3c-.07-1.3-.07-5.2,0-6.5a4.69,4.69,0,0,1,1.28-3.3,4.68,4.68,0,0,1,3.3-1.27c1.3-.07,5.2-.07,6.5,0a4.68,4.68,0,0,1,3.3,1.27,4.68,4.68,0,0,1,1.27,3.3C20.66,13.49,20.66,17.39,20.58,18.69Zm-1.36-3.25a17.41,17.41,0,0,0-.32-4.64,2.67,2.67,0,0,0-1.5-1.5A17.35,17.35,0,0,0,12.76,9a17.35,17.35,0,0,0-4.64.32,2.64,2.64,0,0,0-1.5,1.5,17.38,17.38,0,0,0-.32,4.64,17.46,17.46,0,0,0,.32,4.65,2.65,2.65,0,0,0,1.5,1.49,17.35,17.35,0,0,0,4.64.32c1.15,0,3.61.1,4.64-.32a2.59,2.59,0,0,0,1.5-1.49A17.46,17.46,0,0,0,19.22,15.44Zm-2.42,0a4,4,0,1,1-4-4A4,4,0,0,1,16.8,15.44Zm-1.41,0a2.63,2.63,0,1,0-2.63,2.63A2.62,2.62,0,0,0,15.39,15.44ZM17,12.18a.94.94,0,1,1,.95-.94A.94.94,0,0,1,17,12.18Z" transform="translate(2.12 -0.2)"/></g></g><g id="Rectangle_16" data-name="Rectangle 16"><rect class="cls-3" width="30" height="30" rx="5"/><rect class="cls-4" x="0.5" y="0.5" width="29" height="29" rx="4.5"/></g></g></svg>